<?xml version="1.0" standalone="no"?>
<svg viewBox="0 0 200 200" xmlns="http://www.w3.org/2000/svg">
  <path fill="#DEF6E5" d="M41.5,-70C54,-64.6,64.7,-54,71.9,-41.5C79.1,-29,82.9,-14.5,82.4,-0.2C82,14,77.4,28,70.5,41.1C63.6,54.2,54.5,66.3,42.3,73.3C30.2,80.3,15.1,82.3,0.4,81.6C-14.3,80.9,-28.6,77.7,-41.6,71.1C-54.6,64.6,-66.2,54.7,-73.4,42.3C-80.7,30,-83.5,15,-84.3,-0.5C-85.1,-15.9,-83.8,-31.8,-76.7,-44.4C-69.7,-57.1,-56.8,-66.6,-43,-71.4C-29.3,-76.2,-14.6,-76.3,-0.1,-76.1C14.5,-76,28.9,-75.5,41.5,-70Z" transform="translate(100 100)" />
</svg>
